<?xml version="1.0" standalone="no"?><!DOCTYPE svg PUBLIC "-//W3C//DTD SVG 1.1//EN" "http://www.w3.org/Graphics/SVG/1.1/DTD/svg11.dtd"><svg t="1781189941353" class="icon" viewBox="0 0 1024 1024" version="1.1" xmlns="http://www.w3.org/2000/svg" p-id="7028" xmlns:xlink="http://www.w3.org/1999/xlink" width="200" height="200"><path d="M640 597.333c-113.92 0-341.333 56.747-341.333 170.667v85.333h682.666V768c0-113.92-227.413-170.667-341.333-170.667M640 512a170.667 170.667 0 0 0 170.667-170.667A170.667 170.667 0 0 0 640 170.667a170.667 170.667 0 0 0-170.667 170.666A170.667 170.667 0 0 0 640 512m-426.667 54.613l104.534 63.574-27.734-119.894L384 430.08l-123.307-10.667-47.36-112.64-48.213 112.64L42.667 430.08l93.013 80.213-29.013 119.894 106.666-63.574z" fill="" p-id="7029"></path></svg>