<?xml version="1.0" standalone="no"?><!DOCTYPE svg PUBLIC "-//W3C//DTD SVG 1.1//EN" "http://www.w3.org/Graphics/SVG/1.1/DTD/svg11.dtd"><svg t="1781189971254" class="icon" viewBox="0 0 1024 1024" version="1.1" xmlns="http://www.w3.org/2000/svg" p-id="7574" xmlns:xlink="http://www.w3.org/1999/xlink" width="200" height="200"><path d="M512 512m-512 0a512 512 0 1 0 1024 0 512 512 0 1 0-1024 0Z" fill="#D9D9D9" p-id="7575"></path><path d="M512 1024c-142.222222 0-273.066667-59.733333-366.933333-153.6 5.688889-2.844444 8.533333-8.533333 14.222222-11.377778 85.333333-54.044444 236.088889-62.577778 236.088889-147.911111 0-22.755556-8.533333-51.2-25.6-79.644444-17.066667-25.6-25.6-34.133333-54.044445-71.111111-25.6-34.133333-36.977778-88.177778-36.977777-113.777778s17.066667-17.066667 17.066666-34.133334c0-93.866667 11.377778-162.133333 96.711111-210.488888 17.066667-8.533333 59.733333-14.222222 79.644445-14.222223 22.755556-2.844444 0-19.911111 48.355555-19.911111s116.622222 22.755556 147.911111 88.177778c31.288889 65.422222 34.133333 139.377778 34.133334 156.444444 0 17.066667 17.066667 8.533333 17.066666 34.133334s-8.533333 76.8-34.133333 113.777778c-28.444444 34.133333-36.977778 42.666667-54.044444 71.111111-17.066667 25.6-25.6 54.044444-25.6 79.644444 0 88.177778 147.911111 93.866667 236.088889 147.911111l25.6 17.066667C779.377778 967.111111 651.377778 1024 512 1024z" fill="#FFFFFF" p-id="7576"></path></svg>