<?xml version="1.0" standalone="no"?><!DOCTYPE svg PUBLIC "-//W3C//DTD SVG 1.1//EN" "http://www.w3.org/Graphics/SVG/1.1/DTD/svg11.dtd"><svg t="1777808553962" class="icon" viewBox="0 0 1024 1024" version="1.1" xmlns="http://www.w3.org/2000/svg" p-id="13368" xmlns:xlink="http://www.w3.org/1999/xlink" width="200" height="200"><path d="M960 164.9v639.5l-30.8 34.2H590.6l-54.7 54.7H488l-54.7-54.7H94.8L64 804.4V164.9l30.8-34.2H447l23.9 10.3 41 41 41-41 23.9-10.3H929l30.8 34.2z m-478.8 78.6l-47.9-47.9H129v578h318l20.5 10.3 13.7 10.3V243.5z m417.2-47.8H590.6l-44.5 44.5v550.6l6.8-6.8 23.9-10.3h321.5v-578zM385.5 387.2H190.6v-61.6h194.9v61.6z m0 256.5H190.6v-61.6h194.9v61.6z m-195-126.6h194.9v-65H190.5v65z m643-129.9H642v-61.6h191.5v61.6zM642 517.1h191.5v-65H642v65z m0 126.6h191.5v-61.6H642v61.6z" p-id="13369"></path></svg>