<?xml version="1.0" standalone="no"?><!DOCTYPE svg PUBLIC "-//W3C//DTD SVG 1.1//EN" "http://www.w3.org/Graphics/SVG/1.1/DTD/svg11.dtd"><svg t="1775920503100" class="icon" viewBox="0 0 1024 1024" version="1.1" xmlns="http://www.w3.org/2000/svg" p-id="21127" xmlns:xlink="http://www.w3.org/1999/xlink" width="200" height="200"><path d="M938.67 256H756.08l-32.94-98.83A42.658 42.658 0 0 0 682.66 128H341.33a42.658 42.658 0 0 0-40.48 29.17L267.92 256H85.33c-23.56 0-42.67 19.1-42.67 42.67v554.67c0 23.56 19.1 42.67 42.67 42.67h853.33c23.56 0 42.67-19.1 42.67-42.67V298.67c0-23.57-19.1-42.67-42.66-42.67zM896 810.67H128V341.33h170.67c18.38 0 34.67-11.75 40.48-29.17l32.94-98.83h279.83l32.94 98.83a42.658 42.658 0 0 0 40.48 29.17H896v469.34z" fill="#2F3CF4" p-id="21128"></path><path d="M512 362.67c-94.1 0-170.67 76.56-170.67 170.67S417.9 704 512 704s170.67-76.56 170.67-170.67S606.1 362.67 512 362.67z m0 256c-47.06 0-85.33-38.27-85.33-85.33S464.94 448 512 448s85.33 38.27 85.33 85.33-38.27 85.34-85.33 85.34z" fill="#2F3CF4" p-id="21129"></path></svg>