<?xml version="1.0" standalone="no"?><!DOCTYPE svg PUBLIC "-//W3C//DTD SVG 1.1//EN" "http://www.w3.org/Graphics/SVG/1.1/DTD/svg11.dtd"><svg t="1777807744328" class="icon" viewBox="0 0 1173 1024" version="1.1" xmlns="http://www.w3.org/2000/svg" p-id="11173" xmlns:xlink="http://www.w3.org/1999/xlink" width="229.1015625" height="200"><path d="M1014.930314 741.865313l-47.472184 276.363069a5.471794 5.471794 0 0 0 9.094671 4.372438l173.548312-152.785477c19.463596-19.863361 17.289869-84.450517-9.469452-92.071053z" fill="#707070" p-id="11174"></path><path d="M1136.833886 0H36.528597A36.628538 36.628538 0 0 0 0 36.528597v806.152644a36.628538 36.628538 0 0 0 36.528597 36.528597H1136.833886a36.628538 36.628538 0 0 0 36.528597-36.528597V36.528597A36.628538 36.628538 0 0 0 1136.833886 0zM276.388054 524.917431a91.346477 91.346477 0 1 1 91.346477-91.321491 91.296506 91.296506 0 0 1-91.346477 91.321491z m319.337888 0A91.346477 91.346477 0 1 1 687.097404 433.59594a91.321491 91.321491 0 0 1-91.371462 91.321491z m319.337888 0a91.346477 91.346477 0 1 1 91.346476-91.321491 91.321491 91.321491 0 0 1-91.346476 91.321491z" fill="#707070" p-id="11175"></path></svg>