<?xml version="1.0" standalone="no"?><!DOCTYPE svg PUBLIC "-//W3C//DTD SVG 1.1//EN" "http://www.w3.org/Graphics/SVG/1.1/DTD/svg11.dtd"><svg t="1775921614636" class="icon" viewBox="0 0 1146 1024" version="1.1" xmlns="http://www.w3.org/2000/svg" p-id="30798" xmlns:xlink="http://www.w3.org/1999/xlink" width="223.828125" height="200"><path d="M274.432 423.424h597.504c22.528 0 37.376-13.824 37.376-34.304s-14.848-34.304-37.376-34.304H274.432c-22.528 0-37.376 13.824-37.376 34.304s14.848 34.304 37.376 34.304z m0 206.336H573.44c22.528 0 37.376-13.824 37.376-34.304s-14.848-34.304-37.376-34.304H274.432c-22.528 0-37.376 13.824-37.376 34.304s14.848 34.304 37.376 34.304z" fill="#336699" p-id="30799"></path><path d="M1003.008 73.216h-179.2V36.352c0-22.016-14.336-36.352-35.84-36.352s-35.84 14.848-35.84 36.352v36.352H394.24V36.352C394.24 14.848 379.904 0 358.4 0s-35.84 14.848-35.84 36.352v36.352H143.36c-78.848 0-143.36 66.048-143.36 146.432v657.92c0 80.384 64.512 145.92 143.36 145.92h430.08c21.504 0 35.84-14.848 35.84-36.352s-14.336-36.352-35.84-36.352H143.36c-43.008 0-71.68-29.184-71.68-73.216V219.136c0-44.032 28.672-73.216 71.68-73.216h179.2v36.352c0 22.016 14.336 36.352 35.84 36.352s35.84-14.848 35.84-36.352v-36.352h358.4v36.352c0 22.016 14.336 36.352 35.84 36.352s35.84-14.848 35.84-36.352v-36.352h179.2c43.008 0 71.68 29.184 71.68 73.216V512c0 22.016 14.336 36.352 35.84 36.352s35.84-14.848 35.84-36.352V219.136c-0.512-80.384-65.024-145.92-143.872-145.92z" fill="#336699" p-id="30800"></path><path d="M967.168 759.296h-74.24v-123.904c0.512-13.312-10.24-24.576-23.552-24.576h-1.024c-10.752 0-20.992 10.752-20.992 24.576v148.48c0 14.336 10.752 24.576 24.576 24.576H967.68c14.336 0 24.576-10.752 24.576-24.576-4.096-13.824-14.336-24.576-25.088-24.576z m-17.92-258.56c-141.824-38.912-286.72 46.08-325.632 187.392s46.08 286.72 187.392 325.632 286.72-46.08 325.632-187.392c39.424-144.896-45.568-290.304-187.392-325.632zM1080.32 808.96c-28.16 109.568-141.824 177.152-254.976 144.896-109.568-28.16-177.152-141.824-144.896-254.976 28.16-109.568 141.824-177.152 254.976-144.896 109.568 31.744 176.64 144.896 144.896 254.976z" fill="#CE0606" p-id="30801"></path></svg>