<?xml version="1.0" standalone="no"?><!DOCTYPE svg PUBLIC "-//W3C//DTD SVG 1.1//EN" "http://www.w3.org/Graphics/SVG/1.1/DTD/svg11.dtd"><svg t="1775921759736" class="icon" viewBox="0 0 1024 1024" version="1.1" xmlns="http://www.w3.org/2000/svg" p-id="31837" xmlns:xlink="http://www.w3.org/1999/xlink" width="200" height="200"><path d="M128 352.576V352a288 288 0 0 1 491.072-204.224 192 192 0 0 1 274.24 204.48 64 64 0 0 1 57.216 74.24C921.6 600.512 850.048 710.656 736 756.992V800a96 96 0 0 1-96 96H384a96 96 0 0 1-96-96v-43.008c-114.048-46.336-185.6-156.48-214.528-330.496A64 64 0 0 1 128 352.64z m64-0.576h64a160 160 0 0 1 320 0h64a224 224 0 0 0-448 0m128 0h192a96 96 0 0 0-192 0m439.424 0h68.544A128.256 128.256 0 0 0 704 192c-15.36 0-29.952 2.688-43.52 7.616 11.328 18.176 20.672 37.76 27.84 58.304A64.128 64.128 0 0 1 759.424 352M672 768H352v32a32 32 0 0 0 32 32h256a32 32 0 0 0 32-32z m-342.528-64h365.056c101.504-32.64 165.76-124.928 192.896-288H136.576c27.136 163.072 91.392 255.36 192.896 288" p-id="31838"></path></svg>