<?xml version="1.0" standalone="no"?><!DOCTYPE svg PUBLIC "-//W3C//DTD SVG 1.1//EN" "http://www.w3.org/Graphics/SVG/1.1/DTD/svg11.dtd"><svg t="1775907576401" class="icon" viewBox="0 0 1024 1024" version="1.1" xmlns="http://www.w3.org/2000/svg" p-id="4883" xmlns:xlink="http://www.w3.org/1999/xlink" width="200" height="200"><path d="M512 512m-445 0a445 445 0 1 0 890 0 445 445 0 1 0-890 0Z" fill="#E6F3FF" p-id="4884"></path><path d="M703.2 561.5c-4.6 0-8.3-3.7-8.3-8.3v-87.7c0-4.6 3.7-8.3 8.3-8.3s8.3 3.7 8.3 8.3v87.7c0 4.6-3.7 8.3-8.3 8.3z" fill="#2398F9" p-id="4885"></path><path d="M723.1 666.4h-39.7V563c0-8.7 7-15.7 15.7-15.7h8.3c8.7 0 15.7 7 15.7 15.7v103.4z" fill="#B8DDFF" p-id="4886"></path><path d="M388.9 501.9v136.4c0 29.4 54.8 63.8 122.3 63.8s122.3-34.3 122.3-63.8V501.9" fill="#22D0FF" p-id="4887"></path><path d="M504.2 560.4l-211.5-99.7c-12.6-5.9-12.7-23.8-0.1-29.8l211.5-102.2c4.5-2.2 9.8-2.2 14.4 0L730 430.9c12.5 6 12.4 23.9-0.1 29.8l-211.5 99.7c-4.6 2.1-9.7 2.1-14.2 0z" fill="#148AF4" p-id="4888"></path></svg>