<?xml version="1.0" standalone="no"?><!DOCTYPE svg PUBLIC "-//W3C//DTD SVG 1.1//EN" "http://www.w3.org/Graphics/SVG/1.1/DTD/svg11.dtd"><svg t="1775923968966" class="icon" viewBox="0 0 1024 1024" version="1.1" xmlns="http://www.w3.org/2000/svg" p-id="45183" xmlns:xlink="http://www.w3.org/1999/xlink" width="200" height="200"><path d="M550.309462 547.67142 550.309462 510.06775C775.56123 490.79153 952.379472 303.930216 952.379472 75.924702 952.379472 56.509638 950.667058 37.534248 948.191001 18.790265L986.905426 18.790265C989.196357 37.557389 990.723645 56.55592 990.723645 75.924702 990.723645 324.710583 796.734989 528.302637 550.309462 547.67142ZM473.667397 510.06775 473.667397 547.67142C227.24187 528.302637 33.276355 324.710583 33.276355 75.924702 33.276355 56.55592 34.803643 37.557389 37.094574 18.790265L75.808999 18.790265C73.309801 37.534248 71.597388 56.509638 71.597388 75.924702 71.597388 303.930216 248.415629 490.79153 473.667397 510.06775Z" p-id="45184"></path><path d="M986.905426 1023.976859 948.191001 1023.976859C950.667058 1005.232876 952.379472 986.257486 952.379472 966.842422 952.379472 738.813767 775.56123 551.975594 550.309462 532.699374L550.309462 495.095704C796.734989 514.464487 990.723645 718.056541 990.723645 966.842422 990.723645 986.211204 989.196357 1005.209735 986.905426 1023.976859ZM473.667397 532.699374C248.415629 551.975594 71.597388 738.813767 71.597388 966.842422 71.597388 986.257486 73.309801 1005.232876 75.808999 1023.976859L37.094574 1023.976859C34.803643 1005.209735 33.276355 986.211204 33.276355 966.842422 33.276355 718.056541 227.24187 514.464487 473.667397 495.095704L473.667397 532.699374Z" p-id="45185"></path><path d="M33.276355 1023.976859 33.276355 985.632686 990.723645 985.632686 990.723645 1023.976859 33.276355 1023.976859ZM33.276355 0 990.723645 0 990.723645 38.321032 33.276355 38.321032 33.276355 0Z" p-id="45186"></path><path d="M454.853992 359.143974C448.420872 359.722492 441.94147 360.115884 435.346365 360.115884 319.110529 360.115884 224.904658 266.881924 224.904658 151.849405L263.22569 151.849405C263.22569 246.101557 340.284287 322.512214 435.346365 322.512214 441.94147 322.512214 448.444013 322.072541 454.853992 321.332038L454.853992 359.143974Z" p-id="45187"></path><path d="M454.853992 665.018011C448.444013 664.300649 441.94147 663.837834 435.346365 663.837834 340.399991 663.837834 263.457097 739.901381 263.248831 833.783282L224.927798 833.783282C225.112924 718.727622 319.249373 625.516802 435.346365 625.516802 441.94147 625.516802 448.420872 625.910194 454.853992 626.488712L454.853992 665.018011Z" p-id="45188"></path></svg>