<?xml version="1.0" standalone="no"?><!DOCTYPE svg PUBLIC "-//W3C//DTD SVG 1.1//EN" "http://www.w3.org/Graphics/SVG/1.1/DTD/svg11.dtd"><svg t="1775920778184" class="icon" viewBox="0 0 1064 1024" version="1.1" xmlns="http://www.w3.org/2000/svg" p-id="25827" xmlns:xlink="http://www.w3.org/1999/xlink" width="207.8125" height="200"><path d="M568.1152 147.74272a112.64 112.64 0 0 0-71.2704 0L236.05248 234.7008a30.72 30.72 0 0 0-21.01248 29.12256v358.07232c0 39.03488 11.79648 70.73792 33.83296 90.80832 42.8032 38.87104 122.34752 98.79552 257.06496 161.46432 16.7936 7.7824 36.29056 7.7824 53.08416 0 134.7584-62.6688 214.2208-122.59328 257.06496-161.46432 22.03648-20.0704 33.83296-51.77344 33.83296-90.80832V263.82336a30.72 30.72 0 0 0-21.01248-29.12256L568.1152 147.74272z m-103.6288-97.11616a215.04 215.04 0 0 1 135.9872 0l260.83328 86.91712a133.12 133.12 0 0 1 91.01312 126.27968v358.07232c0 58.04032-17.6128 121.36448-67.3792 166.58432-50.91328 46.2848-139.264 111.77984-282.70592 178.50368a165.43744 165.43744 0 0 1-139.50976 0c-143.48288-66.7648-231.79264-132.25984-282.70592-178.50368-49.72544-45.21984-67.3792-108.544-67.3792-166.58432V263.82336a133.12 133.12 0 0 1 91.01312-126.27968l260.83328-86.91712z" fill="#1D1D1F" p-id="25828"></path><path d="M532.48 655.36a265.13408 265.13408 0 0 0-181.00224 70.98368l-55.7056-60.04736A347.09504 347.09504 0 0 1 532.48 573.44c91.3408 0 174.57152 35.2256 236.66688 92.85632l-55.7056 60.04736A265.13408 265.13408 0 0 0 532.48 655.36zM532.48 307.2a61.44 61.44 0 1 0 0 122.88 61.44 61.44 0 0 0 0-122.88zM389.12 368.64a143.36 143.36 0 1 1 286.72 0 143.36 143.36 0 0 1-286.72 0z" fill="#1D1D1F" p-id="25829"></path></svg>