<?xml version="1.0" standalone="no"?><!DOCTYPE svg PUBLIC "-//W3C//DTD SVG 1.1//EN" "http://www.w3.org/Graphics/SVG/1.1/DTD/svg11.dtd"><svg t="1775921888725" class="icon" viewBox="0 0 1024 1024" version="1.1" xmlns="http://www.w3.org/2000/svg" p-id="35958" xmlns:xlink="http://www.w3.org/1999/xlink" width="200" height="200"><path d="M935.424 1024H88.576C49.664 1024 17.92 992.256 17.92 953.344V70.656C17.92 31.744 49.664 0 88.576 0h846.848C974.336 0 1006.08 31.744 1006.08 70.656v882.944c0 38.656-31.744 70.4-70.656 70.4zM88.576 54.272c-8.96 0-16.384 7.424-16.384 16.384v882.944c0 8.96 7.424 16.384 16.384 16.384h846.848c8.96 0 16.384-7.424 16.384-16.384V70.656c0-8.96-7.424-16.384-16.384-16.384H88.576z" fill="#656565" p-id="35959"></path><path d="M227.84 334.848m-65.536 0a65.536 65.536 0 1 0 131.072 0 65.536 65.536 0 1 0-131.072 0Z" fill="#656565" p-id="35960"></path><path d="M796.16 334.848m-65.536 0a65.536 65.536 0 1 0 131.072 0 65.536 65.536 0 1 0-131.072 0Z" fill="#656565" p-id="35961"></path><path d="M506.88 715.264c-171.776 0-311.296-155.136-311.296-345.856h54.272c0 160.768 115.2 291.584 257.024 291.584s257.024-130.816 257.024-291.584h54.272c0 190.72-139.52 345.856-311.296 345.856z" fill="#656565" p-id="35962"></path></svg>