<?xml version="1.0" standalone="no"?><!DOCTYPE svg PUBLIC "-//W3C//DTD SVG 1.1//EN" "http://www.w3.org/Graphics/SVG/1.1/DTD/svg11.dtd"><svg t="1775916871378" class="icon" viewBox="0 0 1024 1024" version="1.1" xmlns="http://www.w3.org/2000/svg" p-id="7727" xmlns:xlink="http://www.w3.org/1999/xlink" width="200" height="200"><path d="M89.213892 395.324235a477.003294 477.003294 0 0 0 24.515764 275.215059c5.722353 13.101176 3.794824 28.491294-4.969411 40.176941-8.764235 11.715765-23.04 17.950118-37.285647 16.233412s-26.202353-11.053176-31.232-24.425412a546.876235 546.876235 0 0 1-40.176942-212.148706c0.301176-36.442353 4.156235-72.914824 11.565177-108.784941 2.891294-13.974588 12.920471-25.660235 26.352941-30.479059a38.851765 38.851765 0 0 1 38.79153 6.866824c10.571294 9.095529 15.329882 23.341176 12.438588 37.345882z m848.203294-285.756235a543.021176 543.021176 0 0 1 51.2 209.347765 560.609882 560.609882 0 0 1-5.842824 109.056 41.200941 41.200941 0 0 1-44.875294 32.978823 38.279529 38.279529 0 0 1-33.370353-42.526117 475.136 475.136 0 0 0-38.912-273.136942 39.966118 39.966118 0 0 1 2.56-40.538353 40.809412 40.809412 0 0 1 36.683294-18.311529c14.426353 0.993882 26.925176 9.878588 32.557177 23.130353z" p-id="7728"></path><path d="M999.308951 548.321882a71.439059 71.439059 0 0 0-100.833883-5.571764c-1.024 0.903529-2.017882 1.897412-3.072 2.921411l-85.654588 85.564236a42.465882 42.465882 0 0 1-64.963765 3.794823 134.174118 134.174118 0 0 1-3.343059-74.059294L784.299068 207.932235a57.615059 57.615059 0 0 0-47.435294-66.048 57.494588 57.494588 0 0 0-65.987765 47.525647l-0.602353 4.698353-47.073882 277.263059c-2.529882 6.896941-8.071529 8.041412-8.432941-1.204706l-16.052706-360.688941a57.554824 57.554824 0 0 0-57.133176-57.825882 57.374118 57.374118 0 0 0-57.73553 57.223529v0.602353l-1.415529 363.248941c0.391529 4.306824-3.373176 5.391059-3.764706 0.632471l-51.320471-283.376941a58.578824 58.578824 0 0 0-66.590117-48.188236 59.452235 59.452235 0 0 0-46.622118 68.608l45.808941 331.65553c0 5.903059-2.108235 9.276235-5.089882 1.776941l-67.915294-182.000941a57.434353 57.434353 0 1 0-109.236706 35.418353c0.301176 1.024 0.692706 2.048 1.114353 3.162353L297.507539 789.985882c0.903529 2.017882 1.626353 4.186353 2.138353 6.384942l0.391529 0.813176a253.500235 253.500235 0 0 0 240.820706 175.134118 341.895529 341.895529 0 0 0 203.956706-69.240471c61.500235-37.074824 259.041882-249.253647 259.041882-249.253647a73.667765 73.667765 0 0 0-2.951529-104.267294l-1.746824-1.566118 0.150589 0.331294z m0 0" p-id="7729"></path></svg>